{
  "accessors": [
    {
      "bufferView": 2,
      "componentType": 5126,
      "count": 3470,
      "max": [
        0.66692399978637695,
        0.80063211917877197,
        1.506481409072876
      ],
      "min": [
        -0.66692399978637695,
        0.101429283618927,
        -1.4754621982574463
      ],
      "type": "VEC3"
    },
    {
      "bufferView": 2,
      "byteOffset": 41640,
      "componentType": 5126,
      "count": 3470,
      "max": [
        1,
        1,
        1
      ],
      "min": [
        -1,
        -1,
        -1
      ],
      "type": "VEC3"
    },
    {
      "bufferView": 1,
      "componentType": 5126,
      "count": 3470,
      "max": [
        0.96510398387908936,
        0.96690547466278076
      ],
      "min": [
        0.061707347631454468,
        0.043273955583572388
      ],
      "type": "VEC2"
    },
    {
      "bufferView": 0,
      "componentType": 5125,
      "count": 7896,
      "max": [
        3469
      ],
      "min": [
        0
      ],
      "type": "SCALAR"
    },
    {
      "bufferView": 2,
      "byteOffset": 83280,
      "componentType": 5126,
      "count": 50,
      "max": [
        0.45260637998580933,
        0.77912056446075439,
        0.550892174243927
      ],
      "min": [
        -0.45260637998580933,
        0.54448044300079346,
        -0.59448385238647461
      ],
      "type": "VEC3"
    },
    {
      "bufferView": 2,
      "byteOffset": 83880,
      "componentType": 5126,
      "count": 50,
      "max": [
        0.92628645896911621,
        0.99987578392028809,
        0.33409580588340759
      ],
      "min": [
        -0.92628645896911621,
        0.29402151703834534,
        -0.95579880475997925
      ],
      "type": "VEC3"
    },
    {
      "bufferView": 1,
      "byteOffset": 27760,
      "componentType": 5126,
      "count": 50,
      "max": [
        0.2119259238243103,
        0.95020705461502075
      ],
      "min": [
        0.061511695384979248,
        0.7997928261756897
      ],
      "type": "VEC2"
    },
    {
      "bufferView": 0,
      "byteOffset": 31584,
      "componentType": 5125,
      "count": 114,
      "max": [
        49
      ],
      "min": [
        0
      ],
      "type": "SCALAR"
    },
    {
      "bufferView": 2,
      "byteOffset": 84480,
      "componentType": 5126,
      "count": 510,
      "max": [
        0.65809869766235352,
        0.33732560276985168,
        1.5554124116897583
      ],
      "min": [
        -0.65809869766235352,
        0.1001642569899559,
        0.99248039722442627
      ],
      "type": "VEC3"
    },
    {
      "bufferView": 2,
      "byteOffset": 90600,
      "componentType": 5126,
      "count": 510,
      "max": [
        0.99690490961074829,
        1,
        1
      ],
      "min": [
        -0.99690490961074829,
        -1,
        -1
      ],
      "type": "VEC3"
    },
    {
      "bufferView": 1,
      "byteOffset": 28160,
      "componentType": 5126,
      "count": 510,
      "max": [
        0.96115589141845703,
        0.95231616497039795
      ],
      "min": [
        0.355629563331604,
        0.28884398937225342
      ],
      "type": "VEC2"
    },
    {
      "bufferView": 0,
      "byteOffset": 32040,
      "componentType": 5125,
      "count": 1020,
      "max": [
        509
      ],
      "min": [
        0
      ],
      "type": "SCALAR"
    },
    {
      "bufferView": 2,
      "byteOffset": 96720,
      "componentType": 5126,
      "count": 316,
      "max": [
        0.64551877975463867,
        0.80063211917877197,
        0.45115357637405396
      ],
      "min": [
        -0.64551877975463867,
        0.15759329497814178,
        -0.37393352389335632
      ],
      "type": "VEC3"
    },
    {
      "bufferView": 2,
      "byteOffset": 100512,
      "componentType": 5126,
      "count": 316,
      "max": [
        0.99807333946228027,
        0.99757009744644165,
        0.99996268749237061
      ],
      "min": [
        -0.99807333946228027,
        -0.99999117851257324,
        -0.99991071224212646
      ],
      "type": "VEC3"
    },
    {
      "bufferView": 1,
      "byteOffset": 32240,
      "componentType": 5126,
      "count": 316,
      "max": [
        0.88034474849700928,
        0.96723341941833496
      ],
      "min": [
        0.27867406606674194,
        0.56477940082550049
      ],
      "type": "VEC2"
    },
    {
      "bufferView": 0,
      "byteOffset": 36120,
      "componentType": 5125,
      "count": 684,
      "max": [
        315
      ],
      "min": [
        0
      ],
      "type": "SCALAR"
    },
    {
      "bufferView": 2,
      "byteOffset": 104304,
      "componentType": 5126,
      "count": 26,
      "max": [
        0.46075066924095154,
        0.79004585742950439,
        0.30874985456466675
      ],
      "min": [
        -0.46075066924095154,
        0.55322319269180298,
        -0.35300198197364807
      ],
      "type": "VEC3"
    },
    {
      "bufferView": 2,
      "byteOffset": 104616,
      "componentType": 5126,
      "count": 26,
      "max": [
        0.931224524974823,
        0.99549359083175659,
        0.085170939564704895
      ],
      "min": [
        -0.93122446537017822,
        0.36440369486808777,
        0.0055690612643957138
      ],
      "type": "VEC3"
    },
    {
      "bufferView": 1,
      "byteOffset": 34768,
      "componentType": 5126,
      "count": 26,
      "max": [
        0.19748133420944214,
        0.92430448532104492
      ],
      "min": [
        0.15322285890579224,
        0.7997928261756897
      ],
      "type": "VEC2"
    },
    {
      "bufferView": 0,
      "byteOffset": 38856,
      "componentType": 5125,
      "count": 42,
      "max": [
        25
      ],
      "min": [
        0
      ],
      "type": "SCALAR"
    },
    {
      "bufferView": 2,
      "byteOffset": 104928,
      "componentType": 5126,
      "count": 782,
      "max": [
        0.045440495014190674,
        0.22407950460910797,
        0.22407931089401245
      ],
      "min": [
        -0.1583009660243988,
        -0.2240794450044632,
        -0.22407960891723633
      ],
      "type": "VEC3"
    },
    {
      "bufferView": 2,
      "byteOffset": 114312,
      "componentType": 5126,
      "count": 782,
      "max": [
        1,
        1,
        1
      ],
      "min": [
        -1,
        -1,
        -1
      ],
      "type": "VEC3"
    },
    {
      "bufferView": 1,
      "byteOffset": 34976,
      "componentType": 5126,
      "count": 782,
      "max": [
        0.94338148832321167,
        0.968647301197052
      ],
      "min": [
        0.32344737648963928,
        0.31162989139556885
      ],
      "type": "VEC2"
    },
    {
      "bufferView": 0,
      "byteOffset": 39024,
      "componentType": 5125,
      "count": 1812,
      "max": [
        781
      ],
      "min": [
        0
      ],
      "type": "SCALAR"
    },
    {
      "bufferView": 2,
      "byteOffset": 123696,
      "componentType": 5126,
      "count": 782,
      "max": [
        0.1583009660243988,
        0.22407950460910797,
        0.22407931089401245
      ],
      "min": [
        -0.045440495014190674,
        -0.2240794450044632,
        -0.22407960891723633
      ],
      "type": "VEC3"
    },
    {
      "bufferView": 2,
      "byteOffset": 133080,
      "componentType": 5126,
      "count": 782,
      "max": [
        1,
        1,
        1
      ],
      "min": [
        -1,
        -1,
        -1
      ],
      "type": "VEC3"
    },
    {
      "bufferView": 1,
      "byteOffset": 41232,
      "componentType": 5126,
      "count": 782,
      "max": [
        0.94338148832321167,
        0.968647301197052
      ],
      "min": [
        0.32344737648963928,
        0.31162989139556885
      ],
      "type": "VEC2"
    },
    {
      "bufferView": 0,
      "byteOffset": 46272,
      "componentType": 5125,
      "count": 1812,
      "max": [
        781
      ],
      "min": [
        0
      ],
      "type": "SCALAR"
    },
    {
      "bufferView": 2,
      "byteOffset": 142464,
      "componentType": 5126,
      "count": 782,
      "max": [
        0.045440495014190674,
        0.22407950460910797,
        0.22407954931259155
      ],
      "min": [
        -0.1583009660243988,
        -0.2240794450044632,
        -0.224079430103302
      ],
      "type": "VEC3"
    },
    {
      "bufferView": 2,
      "byteOffset": 151848,
      "componentType": 5126,
      "count": 782,
      "max": [
        1,
        1,
        1
      ],
      "min": [
        -1,
        -1,
        -1
      ],
      "type": "VEC3"
    },
    {
      "bufferView": 1,
      "byteOffset": 47488,
      "componentType": 5126,
      "count": 782,
      "max": [
        0.94338148832321167,
        0.968647301197052
      ],
      "min": [
        0.32344737648963928,
        0.31162989139556885
      ],
      "type": "VEC2"
    },
    {
      "bufferView": 0,
      "byteOffset": 53520,
      "componentType": 5125,
      "count": 1812,
      "max": [
        781
      ],
      "min": [
        0
      ],
      "type": "SCALAR"
    },
    {
      "bufferView": 2,
      "byteOffset": 161232,
      "componentType": 5126,
      "count": 782,
      "max": [
        0.1583009660243988,
        0.22407950460910797,
        0.22407954931259155
      ],
      "min": [
        -0.045440495014190674,
        -0.2240794450044632,
        -0.224079430103302
      ],
      "type": "VEC3"
    },
    {
      "bufferView": 2,
      "byteOffset": 170616,
      "componentType": 5126,
      "count": 782,
      "max": [
        1,
        1,
        1
      ],
      "min": [
        -1,
        -1,
        -1
      ],
      "type": "VEC3"
    },
    {
      "bufferView": 1,
      "byteOffset": 53744,
      "componentType": 5126,
      "count": 782,
      "max": [
        0.94338148832321167,
        0.968647301197052
      ],
      "min": [
        0.32344737648963928,
        0.31162989139556885
      ],
      "type": "VEC2"
    },
    {
      "bufferView": 0,
      "byteOffset": 60768,
      "componentType": 5125,
      "count": 1812,
      "max": [
        781
      ],
      "min": [
        0
      ],
      "type": "SCALAR"
    },
    {
      "bufferView": 2,
      "byteOffset": 180000,
      "componentType": 5126,
      "count": 45561,
      "max": [
        3.8455021381378174,
        3.4740464687347412,
        3.6844246387481689
      ],
      "min": [
        -5.0624785423278809,
        -0.65010964870452881,
        -3.9999980926513672
      ],
      "type": "VEC3"
    },
    {
      "bufferView": 2,
      "byteOffset": 726732,
      "componentType": 5126,
      "count": 45561,
      "max": [
        0.99999970197677612,
        1,
        1
      ],
      "min": [
        -0.99967914819717407,
        -1,
        -0.99993264675140381
      ],
      "type": "VEC3"
    },
    {
      "bufferView": 1,
      "byteOffset": 60000,
      "componentType": 5126,
      "count": 45561,
      "max": [
        0.96982598304748535,
        0.95395493507385254
      ],
      "min": [
        0.03495335578918457,
        0.034953325986862183
      ],
      "type": "VEC2"
    },
    {
      "bufferView": 0,
      "byteOffset": 68016,
      "componentType": 5125,
      "count": 70098,
      "max": [
        45557
      ],
      "min": [
        0
      ],
      "type": "SCALAR"
    },
    {
      "bufferView": 2,
      "byteOffset": 1273464,
      "componentType": 5126,
      "count": 756,
      "max": [
        0.94525742530822754,
        0.60015612840652466,
        0.95280998945236206
      ],
      "min": [
        -1.3939721584320068,
        -0.14667297899723053,
        -2.1102180480957031
      ],
      "type": "VEC3"
    },
    {
      "bufferView": 2,
      "byteOffset": 1282536,
      "componentType": 5126,
      "count": 756,
      "max": [
        0.99231088161468506,
        0.99893850088119507,
        0.93725425004959106
      ],
      "min": [
        -0.97192376852035522,
        -0.99904841184616089,
        -0.97224384546279907
      ],
      "type": "VEC3"
    },
    {
      "bufferView": 1,
      "byteOffset": 424488,
      "componentType": 5126,
      "count": 756,
      "max": [
        0.20951882004737854,
        0.9556124210357666
      ],
      "min": [
        0.040481328964233398,
        0.78657495975494385
      ],
      "type": "VEC2"
    },
    {
      "bufferView": 0,
      "byteOffset": 348408,
      "componentType": 5125,
      "count": 1440,
      "max": [
        755
      ],
      "min": [
        0
      ],
      "type": "SCALAR"
    }
  ],
  "asset": {
    "extras": {
      "author": "BetelgeuseMan (https://sketchfab.com/betelgeuseman)",
      "license": "CC-BY-4.0 (http://creativecommons.org/licenses/by/4.0/)",
      "source": "https://sketchfab.com/3d-models/retrowave-lowpoly-car-remake-81c1d168da1a42e0a554dc295e289044",
      "title": "Retrowave LowPoly Car (Remake)"
    },
    "generator": "Sketchfab-9.24.0",
    "version": "2.0"
  },
  "bufferViews": [
    {
      "buffer": 0,
      "byteLength": 354168,
      "byteOffset": 0,
      "name": "floatBufferViews",
      "target": 34963
    },
    {
      "buffer": 0,
      "byteLength": 430536,
      "byteOffset": 354168,
      "byteStride": 8,
      "name": "floatBufferViews",
      "target": 34962
    },
    {
      "buffer": 0,
      "byteLength": 1291608,
      "byteOffset": 784704,
      "byteStride": 12,
      "name": "floatBufferViews",
      "target": 34962
    }
  ],
  "buffers": [
    {
      "byteLength": 2076312,
      "uri": "scene.bin"
    }
  ],
  "images": [
    {
      "uri": "textures/mt_palette_main_baseColor.png"
    }
  ],
  "materials": [
    {
      "doubleSided": false,
      "emissiveFactor": [
        1,
        1,
        1
      ],
      "emissiveTexture": {
        "index": 0,
        "texCoord": 0
      },
      "name": "mt_palette_main",
      "pbrMetallicRoughness": {
        "baseColorFactor": [
          1,
          1,
          1,
          1
        ],
        "baseColorTexture": {
          "index": 0,
          "texCoord": 0
        },
        "metallicFactor": 1,
        "roughnessFactor": 1
      }
    },
    {
      "alphaMode": "BLEND",
      "doubleSided": false,
      "name": "mt_palette_glass",
      "pbrMetallicRoughness": {
        "baseColorFactor": [
          1,
          1,
          1,
          0.40000000000000002
        ],
        "baseColorTexture": {
          "index": 0,
          "texCoord": 0
        },
        "metallicFactor": 1,
        "roughnessFactor": 1
      }
    }
  ],
  "meshes": [
    {
      "primitives": [
        {
          "attributes": {
            "NORMAL": 1,
            "POSITION": 0,
            "TEXCOORD_0": 2
          },
          "indices": 3,
          "material": 0,
          "mode": 4
        }
      ]
    },
    {
      "primitives": [
        {
          "attributes": {
            "NORMAL": 5,
            "POSITION": 4,
            "TEXCOORD_0": 6
          },
          "indices": 7,
          "material": 1,
          "mode": 4
        }
      ]
    },
    {
      "primitives": [
        {
          "attributes": {
            "NORMAL": 9,
            "POSITION": 8,
            "TEXCOORD_0": 10
          },
          "indices": 11,
          "material": 0,
          "mode": 4
        }
      ]
    },
    {
      "primitives": [
        {
          "attributes": {
            "NORMAL": 13,
            "POSITION": 12,
            "TEXCOORD_0": 14
          },
          "indices": 15,
          "material": 0,
          "mode": 4
        }
      ]
    },
    {
      "primitives": [
        {
          "attributes": {
            "NORMAL": 17,
            "POSITION": 16,
            "TEXCOORD_0": 18
          },
          "indices": 19,
          "material": 1,
          "mode": 4
        }
      ]
    },
    {
      "primitives": [
        {
          "attributes": {
            "NORMAL": 21,
            "POSITION": 20,
            "TEXCOORD_0": 22
          },
          "indices": 23,
          "material": 0,
          "mode": 4
        }
      ]
    },
    {
      "primitives": [
        {
          "attributes": {
            "NORMAL": 25,
            "POSITION": 24,
            "TEXCOORD_0": 26
          },
          "indices": 27,
          "material": 0,
          "mode": 4
        }
      ]
    },
    {
      "primitives": [
        {
          "attributes": {
            "NORMAL": 29,
            "POSITION": 28,
            "TEXCOORD_0": 30
          },
          "indices": 31,
          "material": 0,
          "mode": 4
        }
      ]
    },
    {
      "primitives": [
        {
          "attributes": {
            "NORMAL": 33,
            "POSITION": 32,
            "TEXCOORD_0": 34
          },
          "indices": 35,
          "material": 0,
          "mode": 4
        }
      ]
    },
    {
      "primitives": [
        {
          "attributes": {
            "NORMAL": 37,
            "POSITION": 36,
            "TEXCOORD_0": 38
          },
          "indices": 39,
          "material": 0,
          "mode": 4
        }
      ]
    },
    {
      "primitives": [
        {
          "attributes": {
            "NORMAL": 41,
            "POSITION": 40,
            "TEXCOORD_0": 42
          },
          "indices": 43,
          "material": 0,
          "mode": 4
        }
      ]
    }
  ],
  "nodes": [
    {
      "children": [
        1
      ],
      "name": "RootNode (gltf orientation matrix)",
      "rotation": [
        -0.70710678118654746,
        -0,
        -0,
        0.70710678118654757
      ]
    },
    {
      "children": [
        2
      ],
      "name": "RootNode (model correction matrix)"
    },
    {
      "children": [
        3
      ],
      "name": "root"
    },
    {
      "children": [
        4,
        20,
        22
      ],
      "matrix": [
        1,
        0,
        0,
        0,
        0,
        2.2204460492503131e-16,
        1,
        0,
        0,
        -1,
        2.2204460492503131e-16,
        0,
        0,
        0,
        0,
        1
      ],
      "name": "GLTF_SceneRootNode"
    },
    {
      "children": [
        5,
        6,
        7,
        9,
        12,
        14,
        16,
        18
      ],
      "name": "CarBody_7"
    },
    {
      "mesh": 0,
      "name": ""
    },
    {
      "mesh": 1,
      "name": ""
    },
    {
      "children": [
        8
      ],
      "name": "CarBumper_1"
    },
    {
      "mesh": 2,
      "name": ""
    },
    {
      "children": [
        10,
        11
      ],
      "name": "Doors_2"
    },
    {
      "mesh": 3,
      "name": ""
    },
    {
      "mesh": 4,
      "name": ""
    },
    {
      "children": [
        13
      ],
      "matrix": [
        1,
        0,
        0,
        0,
        0,
        1,
        0,
        0,
        0,
        0,
        1,
        0,
        0.59913641214370728,
        0.22018937766551971,
        -0.95331501960754395,
        1
      ],
      "name": "Wheel_BL_3"
    },
    {
      "mesh": 5,
      "name": ""
    },
    {
      "children": [
        15
      ],
      "matrix": [
        1,
        0,
        0,
        0,
        0,
        1,
        0,
        0,
        0,
        0,
        1,
        0,
        -0.59913641214370728,
        0.22018937766551971,
        -0.95331501960754395,
        1
      ],
      "name": "Wheel_BR_4"
    },
    {
      "mesh": 6,
      "name": ""
    },
    {
      "children": [
        17
      ],
      "matrix": [
        1,
        0,
        0,
        0,
        0,
        1,
        0,
        0,
        0,
        0,
        1,
        0,
        0.59913641214370728,
        0.22018937766551971,
        0.76761519908905029,
        1
      ],
      "name": "Wheel_FL_5"
    },
    {
      "mesh": 7,
      "name": ""
    },
    {
      "children": [
        19
      ],
      "matrix": [
        1,
        0,
        0,
        0,
        0,
        1,
        0,
        0,
        0,
        0,
        1,
        0,
        -0.59913641214370728,
        0.22018937766551971,
        0.76761519908905029,
        1
      ],
      "name": "Wheel_FR_6"
    },
    {
      "mesh": 8,
      "name": ""
    },
    {
      "children": [
        21
      ],
      "name": "Island_8"
    },
    {
      "mesh": 9,
      "name": ""
    },
    {
      "children": [
        23
      ],
      "name": "Icosphere_10"
    },
    {
      "mesh": 10,
      "name": ""
    }
  ],
  "samplers": [
    {
      "magFilter": 9728,
      "minFilter": 9986,
      "wrapS": 10497,
      "wrapT": 10497
    }
  ],
  "scene": 0,
  "scenes": [
    {
      "name": "OSG_Scene",
      "nodes": [
        0
      ]
    }
  ],
  "textures": [
    {
      "sampler": 0,
      "source": 0
    }
  ]
}

